g shield_minecraft
v 0.9659253 -0.5399999 -0.2588188
v 0.866025 -0.5399999 -0.4999996
v 0.866025 0.5400001 -0.4999996
v 0.9659253 0.5400001 -0.2588188
v 1 -0.5399999 0
v 1 0.5400001 0
v 0.9659258 -0.5399999 0.258819
v 0.9659258 0.5400001 0.258819
v 0.8660254 -0.5399999 0.5
v 0.8660254 0.5400001 0.5
v 0.4999998 -0.54 -0.8660249
v 0.258819 0.54 -0.9659252
v 0.4999998 0.54 -0.8660249
v 0.258819 -0.54 -0.9659252
v 1.192093E-07 0.54 -0.9999995
v 1.192093E-07 -0.54 -0.9999995
v -0.2588188 0.54 -0.9659254
v -0.2588188 -0.54 -0.9659254
v -0.4999997 0.54 -0.8660251
v -0.4999997 -0.54 -0.8660251
v -0.8660251 -0.54 -0.4999999
v -0.9659255 0.54 -0.258819
v -0.8660251 0.54 -0.4999999
v -0.9659255 -0.54 -0.258819
v -0.9999997 0.54 -5.960464E-08
v -0.9999997 -0.54 -5.960464E-08
v -0.9659256 0.54 0.2588189
v -0.9659256 -0.54 0.2588189
v -0.8660252 0.54 0.4999998
v -0.8660252 -0.54 0.4999998
v -0.4999999 -0.54 0.8660252
v -0.258819 0.54 0.9659256
v -0.4999999 0.54 0.8660252
v -0.258819 -0.54 0.9659256
v -2.980232E-08 0.54 0.9999998
v -2.980232E-08 -0.54 0.9999998
v 0.258819 0.54 0.9659257
v 0.258819 -0.54 0.9659257
v 0.4999999 0.54 0.8660253
v 0.4999999 -0.54 0.8660253
v 0.9659253 -0.54 -0.2588188
v 0.866025 0.54 -0.4999996
v 0.866025 -0.54 -0.4999996
v 0.9659253 0.54 -0.2588188
v 1 -0.54 0
v 1 0.54 0
v 0.9659258 -0.54 0.258819
v 0.9659258 0.54 0.258819
v 0.8660254 -0.54 0.5
v 0.8660254 0.54 0.5
v 0.4999998 -0.54 -0.8660249
v 0.4999998 0.54 -0.8660249
v 0.258819 0.54 -0.9659252
v 0.258819 -0.54 -0.9659252
v 1.192093E-07 0.54 -0.9999995
v 1.192093E-07 -0.54 -0.9999995
v -0.2588188 0.54 -0.9659254
v -0.2588188 -0.54 -0.9659254
v -0.4999997 0.54 -0.8660251
v -0.4999997 -0.54 -0.8660251
v -0.8660251 -0.54 -0.4999999
v -0.8660251 0.54 -0.4999999
v -0.9659255 0.54 -0.258819
v -0.9659255 -0.54 -0.258819
v -0.9999997 0.54 -5.960464E-08
v -0.9999997 -0.54 -5.960464E-08
v -0.9659256 0.54 0.2588189
v -0.9659256 -0.54 0.2588189
v -0.8660252 0.54 0.4999998
v -0.8660252 -0.54 0.4999998
v -0.4999999 -0.54 0.8660252
v -0.4999999 0.54 0.8660252
v -0.258819 0.54 0.9659256
v -0.258819 -0.54 0.9659256
v -2.980232E-08 0.54 0.9999998
v -2.980232E-08 -0.54 0.9999998
v 0.258819 0.54 0.9659257
v 0.258819 -0.54 0.9659257
v 0.4999999 0.54 0.8660253
v 0.4999999 -0.54 0.8660253
vt 0.7500099 0.004423261
vt 0.9898355 0.004468292
vt 0.9896489 0.9966518
vt 0.7498233 0.9966067
vt 0.5101843 0.00437811
vt 0.5099977 0.9965615
vt 0.2703585 0.004332989
vt 0.2701719 0.9965165
vt 0.03053269 0.004287869
vt 0.03034607 0.9964714
vt 0.03038326 0.004432201
vt 0.270321 0.9965891
vt 0.03049546 0.9966161
vt 0.2702088 0.004404992
vt 0.5101469 0.9965616
vt 0.5100344 0.004377782
vt 0.7499726 0.9965347
vt 0.7498602 0.004350662
vt 0.9897984 0.9965074
vt 0.9896856 0.004323453
vt 0.03042021 0.004396617
vt 0.2702839 0.9965705
vt 0.0304583 0.9965798
vt 0.270246 0.004387319
vt 0.5101098 0.9965621
vt 0.5100718 0.004378289
vt 0.7499352 0.9965519
vt 0.749898 0.004368991
vt 0.9897614 0.9965436
vt 0.9897232 0.004359901
vt 0.0304206 0.004396468
vt 0.2702839 0.9965708
vt 0.03045818 0.9965796
vt 0.2702462 0.004387408
vt 0.5101104 0.996562
vt 0.5100724 0.004378378
vt 0.7499358 0.9965522
vt 0.7498976 0.00436908
vt 0.9897611 0.9965434
vt 0.989724 0.00435999
vt 0.7500099 0.004423261
vt 0.9896489 0.9966518
vt 0.9898355 0.004468292
vt 0.7498233 0.9966067
vt 0.5101843 0.00437811
vt 0.5099977 0.9965615
vt 0.2703585 0.004332989
vt 0.2701719 0.9965165
vt 0.03053269 0.004287869
vt 0.03034607 0.9964714
vt 0.03038326 0.004432201
vt 0.03049546 0.9966161
vt 0.270321 0.9965891
vt 0.2702088 0.004404992
vt 0.5101469 0.9965616
vt 0.5100344 0.004377782
vt 0.7499726 0.9965347
vt 0.7498602 0.004350662
vt 0.9897984 0.9965074
vt 0.9896856 0.004323453
vt 0.03042021 0.004396617
vt 0.0304583 0.9965798
vt 0.2702839 0.9965705
vt 0.270246 0.004387319
vt 0.5101098 0.9965621
vt 0.5100718 0.004378289
vt 0.7499352 0.9965519
vt 0.749898 0.004368991
vt 0.9897614 0.9965436
vt 0.9897232 0.004359901
vt 0.0304206 0.004396468
vt 0.03045818 0.9965796
vt 0.2702839 0.9965708
vt 0.2702462 0.004387408
vt 0.5101104 0.996562
vt 0.5100724 0.004378378
vt 0.7499358 0.9965522
vt 0.7498976 0.00436908
vt 0.9897611 0.9965434
vt 0.989724 0.00435999
vn -0.9659256 0 0.25882
vn -0.9238795 0 0.3826833
vn -0.9238795 0 0.3826833
vn -0.9659256 0 0.25882
vn -1 0 0
vn -1 0 0
vn -0.9659258 0 -0.2588191
vn -0.9659258 0 -0.2588191
vn -0.9238795 0 -0.3826834
vn -0.9238795 0 -0.3826834
vn -0.3826834 0 0.9238795
vn -0.2588191 0 0.9659258
vn -0.3826834 0 0.9238795
vn -0.2588191 0 0.9659258
vn 0 0 1
vn 0 0 1
vn 0.2588187 0 0.9659259
vn 0.2588187 0 0.9659259
vn 0.3826829 0 0.9238797
vn 0.3826829 0 0.9238797
vn 0.9238795 0 0.3826835
vn 0.9659257 0 0.2588191
vn 0.9238795 0 0.3826835
vn 0.9659257 0 0.2588191
vn 1 0 0
vn 1 0 0
vn 0.9659258 0 -0.2588189
vn 0.9659258 0 -0.2588189
vn 0.9238795 0 -0.3826833
vn 0.9238795 0 -0.3826833
vn 0.3826837 0 -0.9238794
vn 0.258819 0 -0.9659258
vn 0.3826837 0 -0.9238794
vn 0.258819 0 -0.9659258
vn 0 0 -1
vn 0 0 -1
vn -0.2588188 0 -0.9659258
vn -0.2588188 0 -0.9659258
vn -0.3826833 0 -0.9238796
vn -0.3826833 0 -0.9238796
vn 0.9659256 0 -0.25882
vn 0.9238795 0 -0.3826833
vn 0.9238795 0 -0.3826833
vn 0.9659256 0 -0.25882
vn 1 0 0
vn 1 0 0
vn 0.9659258 0 0.2588191
vn 0.9659258 0 0.2588191
vn 0.9238795 0 0.3826834
vn 0.9238795 0 0.3826834
vn 0.3826834 0 -0.9238795
vn 0.3826834 0 -0.9238795
vn 0.2588191 0 -0.9659258
vn 0.2588191 0 -0.9659258
vn 0 0 -1
vn 0 0 -1
vn -0.2588187 0 -0.9659259
vn -0.2588187 0 -0.9659259
vn -0.3826829 0 -0.9238797
vn -0.3826829 0 -0.9238797
vn -0.9238795 0 -0.3826835
vn -0.9238795 0 -0.3826835
vn -0.9659257 0 -0.2588191
vn -0.9659257 0 -0.2588191
vn -1 0 0
vn -1 0 0
vn -0.9659258 0 0.2588189
vn -0.9659258 0 0.2588189
vn -0.9238795 0 0.3826833
vn -0.9238795 0 0.3826833
vn -0.3826837 0 0.9238794
vn -0.3826837 0 0.9238794
vn -0.258819 0 0.9659258
vn -0.258819 0 0.9659258
vn 0 0 1
vn 0 0 1
vn 0.2588188 0 0.9659258
vn 0.2588188 0 0.9659258
vn 0.3826833 0 0.9238796
vn 0.3826833 0 0.9238796
g shield_minecraft_0
f 3/3/3 2/2/2 1/1/1
f 4/4/4 3/3/3 1/1/1
f 4/4/4 1/1/1 5/5/5
f 6/6/6 4/4/4 5/5/5
f 6/6/6 5/5/5 7/7/7
f 8/8/8 6/6/6 7/7/7
f 8/8/8 7/7/7 9/9/9
f 10/10/10 8/8/8 9/9/9
f 13/13/13 12/12/12 11/11/11
f 12/12/12 14/14/14 11/11/11
f 12/12/12 15/15/15 14/14/14
f 15/15/15 16/16/16 14/14/14
f 15/15/15 17/17/17 16/16/16
f 17/17/17 18/18/18 16/16/16
f 17/17/17 19/19/19 18/18/18
f 19/19/19 20/20/20 18/18/18
f 23/23/23 22/22/22 21/21/21
f 22/22/22 24/24/24 21/21/21
f 22/22/22 25/25/25 24/24/24
f 25/25/25 26/26/26 24/24/24
f 25/25/25 27/27/27 26/26/26
f 27/27/27 28/28/28 26/26/26
f 27/27/27 29/29/29 28/28/28
f 29/29/29 30/30/30 28/28/28
f 33/33/33 32/32/32 31/31/31
f 32/32/32 34/34/34 31/31/31
f 32/32/32 35/35/35 34/34/34
f 35/35/35 36/36/36 34/34/34
f 35/35/35 37/37/37 36/36/36
f 37/37/37 38/38/38 36/36/36
f 37/37/37 39/39/39 38/38/38
f 39/39/39 40/40/40 38/38/38
f 43/43/43 42/42/42 41/41/41
f 42/42/42 44/44/44 41/41/41
f 41/41/41 44/44/44 45/45/45
f 44/44/44 46/46/46 45/45/45
f 45/45/45 46/46/46 47/47/47
f 46/46/46 48/48/48 47/47/47
f 47/47/47 48/48/48 49/49/49
f 48/48/48 50/50/50 49/49/49
f 53/53/53 52/52/52 51/51/51
f 54/54/54 53/53/53 51/51/51
f 55/55/55 53/53/53 54/54/54
f 56/56/56 55/55/55 54/54/54
f 57/57/57 55/55/55 56/56/56
f 58/58/58 57/57/57 56/56/56
f 59/59/59 57/57/57 58/58/58
f 60/60/60 59/59/59 58/58/58
f 63/63/63 62/62/62 61/61/61
f 64/64/64 63/63/63 61/61/61
f 65/65/65 63/63/63 64/64/64
f 66/66/66 65/65/65 64/64/64
f 67/67/67 65/65/65 66/66/66
f 68/68/68 67/67/67 66/66/66
f 69/69/69 67/67/67 68/68/68
f 70/70/70 69/69/69 68/68/68
f 73/73/73 72/72/72 71/71/71
f 74/74/74 73/73/73 71/71/71
f 75/75/75 73/73/73 74/74/74
f 76/76/76 75/75/75 74/74/74
f 77/77/77 75/75/75 76/76/76
f 78/78/78 77/77/77 76/76/76
f 79/79/79 77/77/77 78/78/78
f 80/80/80 79/79/79 78/78/78
